<svg width="24" height="25" viewBox="0 0 24 25" fill="none" xmlns="http://www.w3.org/2000/svg">
<g id="Frame" clip-path="url(#clip0_575_3)">
<path id="Vector" d="M12 14C12.8284 14 13.5 13.3284 13.5 12.5C13.5 11.6716 12.8284 11 12 11C11.1716 11 10.5 11.6716 10.5 12.5C10.5 13.3284 11.1716 14 12 14Z" fill="white"/>
<path id="Vector_2" d="M5.625 14C6.45343 14 7.125 13.3284 7.125 12.5C7.125 11.6716 6.45343 11 5.625 11C4.79657 11 4.125 11.6716 4.125 12.5C4.125 13.3284 4.79657 14 5.625 14Z" fill="white"/>
<path id="Vector_3" d="M18.375 14C19.2034 14 19.875 13.3284 19.875 12.5C19.875 11.6716 19.2034 11 18.375 11C17.5466 11 16.875 11.6716 16.875 12.5C16.875 13.3284 17.5466 14 18.375 14Z" fill="white"/>
</g>
<defs>
<clipPath id="clip0_575_3">
<rect width="24" height="24" fill="white" transform="translate(0 0.5)"/>
</clipPath>
</defs>
</svg>
