<svg width="956" height="955" viewBox="0 0 956 955" fill="none" xmlns="http://www.w3.org/2000/svg">
<ellipse cx="478" cy="477.5" rx="478" ry="477.5" fill="url(#paint0_linear_1_6)"/>
<circle cx="477.5" cy="477.5" r="451.5" fill="#0F2A4D"/>
<path d="M478 477C511.948 477 544.505 463.514 568.51 439.51C592.514 415.505 606 382.948 606 349C606 315.052 592.514 282.495 568.51 258.49C544.505 234.486 511.948 221 478 221C444.052 221 411.495 234.486 387.49 258.49C363.486 282.495 350 315.052 350 349C350 382.948 363.486 415.505 387.49 439.51C411.495 463.514 444.052 477 478 477ZM432.3 525C333.8 525 254 604.8 254 703.3C254 719.7 267.3 733 283.7 733H672.3C688.7 733 702 719.7 702 703.3C702 604.8 622.2 525 523.7 525H432.3Z" fill="white"/>
<defs>
<linearGradient id="paint0_linear_1_6" x1="110" y1="87.5" x2="1374.22" y2="808.381" gradientUnits="userSpaceOnUse">
<stop stop-color="#1B395F"/>
<stop offset="1" stop-color="#255086"/>
</linearGradient>
</defs>
</svg>
