<svg width="297" height="62" viewBox="0 0 297 62" fill="none" xmlns="http://www.w3.org/2000/svg">
<g clip-path="url(#clip0_1020_198)">
<mask id="mask0_1020_198" style="mask-type:luminance" maskUnits="userSpaceOnUse" x="0" y="0" width="297" height="62">
<path d="M297 0H0V62H297V0Z" fill="white"/>
</mask>
<g mask="url(#mask0_1020_198)">
<path d="M145.568 55.1463L138.485 42.4066H135.949V57.4819H137.746V44.636L144.828 57.4819H147.365V42.4066H145.568V55.1463ZM151.699 50.5813H158.889V48.8826H151.699V44.1052H159.523V42.4066H149.903V57.4819H159.628V55.7832H151.699V50.5813ZM168.614 42.1942C164.068 42.1942 160.79 45.4854 160.79 49.9442C160.79 54.4032 164.068 57.6942 168.614 57.6942C173.159 57.6942 176.331 54.4032 176.331 49.9442C176.331 45.4854 173.053 42.1942 168.614 42.1942ZM174.428 49.9442C174.428 53.66 171.785 55.9955 168.507 55.9955C165.231 55.9955 162.588 53.66 162.588 49.9442C162.588 46.2285 165.231 43.8929 168.507 43.8929C171.785 43.8929 174.428 46.2285 174.428 49.9442Z" fill="url(#paint0_radial_1020_198)"/>
<path d="M93.718 17.2328C93.718 19.58 95.1368 21.6664 97.6346 21.6664C98.254 21.6664 98.9334 21.526 99.4929 21.2651V14.9056C99.4929 14.0229 99.6128 13.2605 99.6328 13.1401C99.4929 13.1 98.7136 12.779 97.4547 12.779C94.7971 12.779 93.718 14.8254 93.718 17.2328ZM103.07 10.8531C103.01 11.1541 102.91 12.3979 102.91 13.3809V30.2528L99.5128 30.6942V24.134C98.6536 24.455 97.7544 24.6154 96.9151 24.6154C93.0986 24.6154 89.9412 21.526 89.9412 17.1926C89.9412 12.8593 92.9187 9.82996 97.5347 9.82996C100.092 9.82996 102.73 10.7327 103.07 10.8531ZM65.7025 11.3948C65.7225 11.4951 65.9623 12.5584 65.9623 14.1834V24.3146H69.3393V15.1062C69.3393 13.9025 69.1994 13.2605 69.1794 13.1803C69.3193 13.1401 70.4784 12.7991 71.8571 12.7991C72.4766 12.7991 73.2759 12.9395 73.7155 13.08L74.7346 10.171C73.9753 9.97041 73.0162 9.85004 72.1369 9.85004C69.0995 9.82996 66.0821 11.2543 65.7025 11.3948ZM87.9231 16.6109C87.9231 17.3732 87.7832 18.2157 87.7233 18.4765H78.6112C78.7511 20.3423 80.2098 21.6664 82.4678 21.6664C84.4262 21.6664 85.665 20.8238 85.8648 20.7035L87.0239 23.3315C86.804 23.4519 85.1455 24.5152 82.3879 24.5954C78.3314 24.7158 74.9943 21.4257 74.9543 17.3532C74.9145 13.2003 77.0126 9.80992 81.4887 9.80992C85.605 9.82998 87.9231 12.6787 87.9231 16.6109ZM84.4461 15.8083C84.4262 14.0229 83.427 12.6386 81.5286 12.6386C79.5104 12.6386 78.6512 14.2235 78.6311 15.8083H84.4461ZM57.6895 9.82996C55.4915 9.82996 53.8929 10.8331 53.713 10.9534V2.88861L50.316 3.69108V24.3146H53.713V13.8423C54.1926 13.5213 55.4714 12.7991 56.7103 12.7991C58.369 12.7991 59.308 13.8023 59.308 15.4874V24.3346H62.7052V14.8856C62.7251 11.7559 60.9466 9.82996 57.6895 9.82996ZM44.3412 16.0491C43.9016 15.8685 43.3221 15.6479 42.9225 15.4874C41.8834 15.0862 41.3238 14.6648 41.3238 13.8825C41.3238 13.0399 42.1431 12.6787 43.0823 12.6787C44.6609 12.6787 46.0797 13.2805 46.1796 13.3207L47.1387 10.6926C46.7791 10.5121 45.3003 9.8099 43.0023 9.82996C40.4446 9.85004 37.8668 11.2744 37.8668 14.0831C37.8668 16.4503 39.5454 17.4736 41.0041 18.0152C41.4437 18.1757 42.0432 18.3963 42.4229 18.5569C43.5618 19.0183 44.0015 19.6 44.0015 20.2621C44.0015 21.2049 43.1822 21.867 41.5437 21.867C40.0249 21.867 38.5262 21.0445 38.4663 21.0245L37.4871 23.6927C37.747 23.7929 39.7452 24.6154 42.1431 24.6154C45.0806 24.6154 47.7583 23.2914 47.7583 20.1818C47.7583 17.9149 46.1595 16.7713 44.3412 16.0491ZM34.7895 21.2251C34.7895 22.6896 34.9893 23.2713 35.0493 23.5321C34.8295 23.5923 31.992 24.6356 28.9747 24.6356C25.9173 24.6356 22.6602 23.5523 22.6602 20.242C22.6602 16.3901 26.7966 16.0893 29.3743 15.4874C30.5932 15.2066 31.3925 14.8654 31.3925 14.0429C31.3925 13.2805 30.4734 12.7189 29.0346 12.7189C27.0963 12.7189 25.2778 13.5615 25.0981 13.6417L23.9391 11.0738C24.1989 10.9534 26.6367 9.85004 29.2344 9.85004C32.7314 9.85004 34.7895 11.6757 34.7895 15.026V21.2251ZM31.5125 21.4056C31.4924 21.2853 31.3925 20.7435 31.3925 19.8006V17.3732C30.9129 17.7544 29.7539 18.0553 28.7349 18.3161C27.5159 18.5969 26.3769 19.0183 26.3769 20.0816C26.3769 21.3855 27.6158 21.867 28.9347 21.867C30.3134 21.847 31.3925 21.4457 31.5125 21.4056ZM14.887 9.82996C12.6689 9.82996 10.7306 11.0939 10.4908 11.2343C10.331 11.0738 9.29187 9.82996 6.37443 9.82996C3.63682 9.82996 0.339703 11.134 0 11.2744C0.039965 11.4149 0.259773 12.2775 0.259773 13.1V24.3146H3.63682V14.8052C3.63682 13.9827 3.53691 13.5013 3.51692 13.4211C3.6568 13.3609 4.79581 12.7991 6.03471 12.7991C7.63332 12.7991 8.51255 13.8023 8.51255 15.3871V24.3146H11.9096V15.688C11.9096 14.4241 11.7297 13.6617 11.6898 13.5213C11.8696 13.4411 13.0685 12.7991 14.3075 12.7991C15.966 12.7991 16.7853 13.8423 16.7853 15.4071V24.2945H20.1823V14.725C20.1823 11.6556 18.0642 9.82996 14.887 9.82996Z" fill="url(#paint1_radial_1020_198)"/>
<path d="M210.056 7.12189L212.334 9.3688L214.612 6.96139L212.274 4.67435L210.056 6.90121L207.858 4.67435L205.62 7.0617L207.899 9.34874L210.056 7.12189ZM246.285 3.27004L243.987 0.942871L241.728 3.33022L244.006 5.61726L246.285 3.27004ZM243.987 7.16201L246.265 9.40893L248.563 7.00152L246.225 4.71447L244.006 6.94133L241.809 4.73455L239.571 7.10183L241.848 9.40893L243.987 7.16201ZM289.946 21.3457C289.946 22.6698 290.265 23.5525 290.306 23.7129C290.106 23.7933 287.529 24.8564 283.772 24.8564C283.772 24.8564 271.782 24.8364 270.244 24.8364C266.826 24.8364 265.548 23.3719 265.227 23.0309C264.949 23.5323 263.809 24.8364 261.391 24.8364C261.092 24.8364 229.219 24.7962 229.099 24.7962C228.9 28.4275 226.022 32.159 219.368 32.5602L219.069 30.3333C223.305 29.6312 225.723 27.2238 225.723 23.3719C225.723 20.8241 224.923 19.0386 223.444 17.4336L225.802 15.0462C227.46 16.2299 228.919 18.5571 229.139 21.4661H237.851C237.752 21.3257 237.573 20.7237 237.573 19.9614C237.573 17.6944 235.834 16.6111 235.395 16.2701L237.652 13.983C238.831 14.946 240.729 16.5309 240.709 19.9614C240.709 20.804 240.889 21.2855 240.989 21.4861H244.686C244.626 21.3257 244.406 20.9445 244.406 19.841C244.406 17.574 242.648 16.5911 242.228 16.2901L244.466 14.0031C245.645 14.966 247.543 16.5509 247.523 19.9814C247.523 20.8241 247.684 21.2453 247.803 21.5061C248.962 21.5061 251.74 21.5061 251.74 21.5061C251.62 21.3055 251.4 21.0247 251.4 19.841C251.4 17.1326 250.641 15.6883 248.863 14.3842L251.16 12.0771C252.938 13.4413 254.637 15.9891 254.637 20.3024C254.637 20.9645 254.896 21.3457 254.977 21.4861C255.077 21.4861 259.892 21.4861 260.492 21.4861C263.07 21.4861 263.689 19.801 264.309 18.7979C266.547 15.0864 267.865 11.9768 271.042 11.9768C273.62 11.9768 274.66 14.6049 276.457 17.8148C277.557 19.801 277.298 21.3257 277.197 21.5061C277.477 21.5061 283.511 21.5061 283.932 21.5061C285.79 21.5061 286.769 21.0247 286.869 20.9845C286.829 20.7839 286.549 19.9814 286.549 17.9151C286.549 13.1404 286.57 4.29318 286.57 4.29318L289.946 3.51077V21.3457ZM273.601 19.4598C272.202 16.892 271.761 15.6682 270.583 15.6682C269.204 15.6682 268.644 17.0124 267.067 19.801C267.645 20.3626 268.625 21.4861 271.382 21.5061C271.502 21.5061 272.262 21.5061 272.762 21.5061C273.64 21.5061 274.26 20.6435 273.601 19.4598ZM293.624 4.31324L293.603 24.8766H296.98L297 3.53084L293.624 4.31324ZM214.172 15.1266C215.772 16.8518 217.169 18.7175 217.169 22.77C217.169 28.0062 213.434 31.4568 204.441 31.4568C191.792 31.4367 192.532 20.9043 195.948 15.1266L198.627 16.4907C194.53 23.3117 197.747 28.0463 204.441 28.0663C209.916 28.0663 213.314 26.662 213.772 24.7962C213.293 24.7962 210.415 24.8164 209.996 24.8164C202.223 24.8164 204.94 14.605 209.416 13.4213C211.594 12.8194 213.333 14.2238 214.172 15.1266ZM213.772 21.446C212.813 17.8148 210.755 16.6913 209.696 16.892C206.999 17.4136 206.919 21.446 210.796 21.446C211.375 21.446 213.273 21.446 213.772 21.446Z" fill="url(#paint2_radial_1020_198)"/>
<path d="M178.963 23.0707C181.062 21.9674 182.22 20.0615 183.06 17.9149C180.822 17.4134 178.604 17.313 176.526 18.4165C174.428 19.5198 173.268 21.4257 172.429 23.5723C174.648 24.0939 176.865 24.1742 178.963 23.0707Z" fill="url(#paint3_radial_1020_198)"/>
<path d="M176.006 16.0898C174.167 19.0187 171.73 20.1623 169.592 20.8042C169.231 18.5774 169.212 15.869 171.05 12.94C172.889 10.011 175.307 8.86751 177.465 8.22552C177.825 10.4724 177.844 13.1608 176.006 16.0898Z" fill="url(#paint4_radial_1020_198)"/>
<path d="M168.893 11.0942C168.953 6.92137 166.974 3.77166 165.656 2.00623C164.216 3.83185 162.198 6.82106 162.139 10.9939C162.079 14.8458 163.737 17.8951 165.376 20.0819C167.074 17.9151 168.833 14.9461 168.893 11.0942Z" fill="url(#paint5_radial_1020_198)"/>
<path d="M158.741 8.72686C156.223 4.05247 152.167 1.5247 149.509 0C149.369 3.12963 149.129 7.74384 151.707 12.5185C154.045 16.8719 157.582 19.2793 160.939 21.2453C161.178 17.3734 161.02 12.98 158.741 8.72686Z" fill="url(#paint6_radial_1020_198)"/>
<path d="M146.153 12.0571C140.357 8.76697 133.723 8.00462 129.367 8.06481C131.465 11.696 135.481 17.0725 141.416 20.443C147.131 23.6929 153.585 24.4953 158.202 24.4353C155.784 20.3426 151.887 15.307 146.153 12.0571Z" fill="url(#paint7_radial_1020_198)"/>
<path d="M135.161 23.2714C127.948 23.2714 119.875 25.418 113.421 28.4272C119.955 31.4165 127.728 33.5832 135.161 33.5832C141.076 33.5832 148.151 32.4195 156.903 28.4272C147.311 24.114 140.676 23.2914 135.161 23.2714Z" fill="url(#paint8_radial_1020_198)"/>
</g>
</g>
<defs>
<radialGradient id="paint0_radial_1020_198" cx="0" cy="0" r="1" gradientUnits="userSpaceOnUse" gradientTransform="translate(166.288 47.2901) scale(11.7339 11.7842)">
<stop stop-color="#FAD929"/>
<stop offset="0.1" stop-color="#F7BD2A"/>
<stop offset="0.4" stop-color="#F48F2D"/>
<stop offset="0.6" stop-color="#F16D30"/>
<stop offset="0.8" stop-color="#EF5831"/>
<stop offset="0.9" stop-color="#EF5132"/>
</radialGradient>
<radialGradient id="paint1_radial_1020_198" cx="0" cy="0" r="1" gradientUnits="userSpaceOnUse" gradientTransform="translate(71.2925 51.526) scale(82.2848 82.611)">
<stop stop-color="#FFDC04"/>
<stop offset="0.2068" stop-color="#F8B10E"/>
<stop offset="0.4624" stop-color="#F18219"/>
<stop offset="0.6892" stop-color="#EB6020"/>
<stop offset="0.8761" stop-color="#E84C25"/>
<stop offset="1" stop-color="#E74427"/>
</radialGradient>
<radialGradient id="paint2_radial_1020_198" cx="0" cy="0" r="1" gradientUnits="userSpaceOnUse" gradientTransform="translate(243.604 51.2361) scale(78.6535 78.9654)">
<stop stop-color="#FFDC04"/>
<stop offset="0.1801" stop-color="#F8B10E"/>
<stop offset="0.4027" stop-color="#F18219"/>
<stop offset="0.6001" stop-color="#EB6020"/>
<stop offset="0.7629" stop-color="#E84C25"/>
<stop offset="0.8708" stop-color="#E74427"/>
</radialGradient>
<radialGradient id="paint3_radial_1020_198" cx="0" cy="0" r="1" gradientUnits="userSpaceOnUse" gradientTransform="translate(172.411 23.5753) scale(12.5999 12.6499)">
<stop stop-color="#FFDC04"/>
<stop offset="0.2068" stop-color="#F8B10E"/>
<stop offset="0.4624" stop-color="#F18219"/>
<stop offset="0.6892" stop-color="#EB6020"/>
<stop offset="0.8761" stop-color="#E84C25"/>
<stop offset="1" stop-color="#E74427"/>
</radialGradient>
<radialGradient id="paint4_radial_1020_198" cx="0" cy="0" r="1" gradientUnits="userSpaceOnUse" gradientTransform="translate(169.582 20.8135) scale(14.8014 14.8601)">
<stop stop-color="#FFDC04"/>
<stop offset="0.2068" stop-color="#F8B10E"/>
<stop offset="0.4624" stop-color="#F18219"/>
<stop offset="0.6892" stop-color="#EB6020"/>
<stop offset="0.8761" stop-color="#E84C25"/>
<stop offset="1" stop-color="#E74427"/>
</radialGradient>
<radialGradient id="paint5_radial_1020_198" cx="0" cy="0" r="1" gradientUnits="userSpaceOnUse" gradientTransform="translate(165.366 20.0687) scale(18.5192 18.5928)">
<stop stop-color="#FFDC04"/>
<stop offset="0.2068" stop-color="#F8B10E"/>
<stop offset="0.4624" stop-color="#F18219"/>
<stop offset="0.6892" stop-color="#EB6020"/>
<stop offset="0.8761" stop-color="#E84C25"/>
<stop offset="1" stop-color="#E74427"/>
</radialGradient>
<radialGradient id="paint6_radial_1020_198" cx="0" cy="0" r="1" gradientUnits="userSpaceOnUse" gradientTransform="translate(160.915 21.242) scale(23.9592 24.0542)">
<stop stop-color="#FFDC04"/>
<stop offset="0.2068" stop-color="#F8B10E"/>
<stop offset="0.4624" stop-color="#F18219"/>
<stop offset="0.6892" stop-color="#EB6020"/>
<stop offset="0.8761" stop-color="#E84C25"/>
<stop offset="1" stop-color="#E74427"/>
</radialGradient>
<radialGradient id="paint7_radial_1020_198" cx="0" cy="0" r="1" gradientUnits="userSpaceOnUse" gradientTransform="translate(158.839 24.6656) scale(34.5834 34.7205)">
<stop offset="4.52862e-07" stop-color="#FFDC04"/>
<stop offset="0.1952" stop-color="#F8B10E"/>
<stop offset="0.4364" stop-color="#F18219"/>
<stop offset="0.6505" stop-color="#EB6020"/>
<stop offset="0.8269" stop-color="#E84C25"/>
<stop offset="0.9438" stop-color="#E74427"/>
</radialGradient>
<radialGradient id="paint8_radial_1020_198" cx="0" cy="0" r="1" gradientUnits="userSpaceOnUse" gradientTransform="translate(157.687 28.3743) scale(44.5732 44.7499)">
<stop stop-color="#FFDC04"/>
<stop offset="0.1801" stop-color="#F8B10E"/>
<stop offset="0.4027" stop-color="#F18219"/>
<stop offset="0.6001" stop-color="#EB6020"/>
<stop offset="0.7629" stop-color="#E84C25"/>
<stop offset="0.8708" stop-color="#E74427"/>
</radialGradient>
<clipPath id="clip0_1020_198">
<rect width="297" height="62" fill="white"/>
</clipPath>
</defs>
</svg>
