<svg width="80" height="80" viewBox="0 0 956 955" fill="none" xmlns="http://www.w3.org/2000/svg">
<ellipse cx="478" cy="477.5" rx="478" ry="477.5" fill="#252525"/>
<circle cx="477.5" cy="477.5" r="451.5" fill="#252525"/>
<path d="M478 221C425 221 382 264 382 317V477C382 530 425 573 478 573C531 573 574 530 574 477V317C574 264 531 221 478 221ZM350 437C350 423.7 339.3 413 326 413C312.7 413 302 423.7 302 437V477C302 566.1 368.2 639.7 454 651.4V685H406C392.7 685 382 695.7 382 709C382 722.3 392.7 733 406 733H478H550C563.3 733 574 722.3 574 709C574 695.7 563.3 685 550 685H502V651.4C587.8 639.7 654 566.1 654 477V437C654 423.7 643.3 413 630 413C616.7 413 606 423.7 606 437V477C606 547.7 548.7 605 478 605C407.3 605 350 547.7 350 477V437Z" fill="white"/>
</svg>
