<svg width="24" height="24" viewBox="0 0 24 24" fill="none" xmlns="http://www.w3.org/2000/svg">
<g id="Frame" clip-path="url(#clip0_556_80)">
<path id="Vector" d="M22.5 11.9897C22.5007 12.2569 22.43 12.5195 22.2951 12.7503C22.1603 12.981 21.9663 13.1716 21.7331 13.3022L5.99061 22.3031C5.76471 22.4312 5.50966 22.499 5.24999 22.5C5.01073 22.4987 4.77525 22.4402 4.5632 22.3294C4.35116 22.2185 4.16871 22.0586 4.03107 21.8629C3.89344 21.6672 3.80462 21.4414 3.77203 21.2043C3.73944 20.9673 3.76403 20.7259 3.84374 20.5003L6.37499 13.005C6.39973 12.9317 6.44652 12.8679 6.50895 12.8222C6.57139 12.7766 6.64641 12.7514 6.72374 12.75H13.5C13.6028 12.7502 13.7046 12.7293 13.799 12.6885C13.8934 12.6478 13.9784 12.5881 14.0487 12.5131C14.119 12.4381 14.1732 12.3494 14.2078 12.2526C14.2424 12.1558 14.2568 12.0529 14.25 11.9503C14.233 11.7575 14.1437 11.5781 14.0002 11.4483C13.8566 11.3184 13.6692 11.2476 13.4756 11.25H6.72561C6.64716 11.25 6.57067 11.2254 6.50693 11.1797C6.44319 11.1339 6.39541 11.0693 6.3703 10.995L3.83905 3.50063C3.7383 3.21337 3.72734 2.90226 3.80761 2.60862C3.88789 2.31498 4.05561 2.05272 4.28848 1.85667C4.52136 1.66062 4.80838 1.54007 5.1114 1.51103C5.41442 1.48198 5.71911 1.54582 5.98499 1.69406L21.735 10.6838C21.9668 10.8141 22.1598 11.0037 22.2943 11.2332C22.4287 11.4626 22.4997 11.7237 22.5 11.9897Z" fill="white"/>
</g>
<defs>
<clipPath id="clip0_556_80">
<rect width="24" height="24" fill="white"/>
</clipPath>
</defs>
</svg>
